<?xml version="1.0" standalone="no"?><!DOCTYPE svg PUBLIC "-//W3C//DTD SVG 1.1//EN" "http://www.w3.org/Graphics/SVG/1.1/DTD/svg11.dtd"><svg t="1717943806661" class="icon" viewBox="0 0 1118 1024" version="1.1" xmlns="http://www.w3.org/2000/svg" p-id="20598" xmlns:xlink="http://www.w3.org/1999/xlink" width="218.359375" height="200"><path d="M621.427108 725.610106l-134.01616-134.01616-124.518493 124.518493-44.57494-44.57494 168.976897-169.326505 134.01616 134.01616 135.239786-135.239786 44.574941 44.808012z" fill="#515151" p-id="20599"></path><path d="M927.391829 960.837601V572.715147a368.427905 368.427905 0 0 0-736.914078 0v388.122454H66.658473v63.104131h986.417207V960.837601zM253.64015 572.715147a305.323774 305.323774 0 0 1 610.58928 0v388.122454H253.64015z" fill="#515151" p-id="20600"></path><path d="M969.402982 383.577558H1118.743598v63.104131h-149.340616z" fill="#515151" p-id="20601"></path><path d="M0 383.577558h149.340617v63.104131H0z" fill="#515151" p-id="20602"></path><path d="M140.250825 142.931148l44.633208-44.633208L290.46546 203.937635l-44.633208 44.57494z" fill="#515151" p-id="20603"></path><path d="M821.86867 204.054171l105.581427-105.581427 44.633208 44.57494-105.581427 105.639695z" fill="#515151" p-id="20604"></path><path d="M528.256743 0h63.104131v149.340617H528.256743z" fill="#515151" p-id="20605"></path></svg>