<?xml version="1.0" standalone="no"?><!DOCTYPE svg PUBLIC "-//W3C//DTD SVG 1.1//EN" "http://www.w3.org/Graphics/SVG/1.1/DTD/svg11.dtd"><svg t="1717945414137" class="icon" viewBox="0 0 1024 1024" version="1.1" xmlns="http://www.w3.org/2000/svg" p-id="112285" xmlns:xlink="http://www.w3.org/1999/xlink" width="200" height="200"><path d="M317.2352 783.27808H220.61056a44.2368 44.2368 0 0 1-44.2368-44.2368V328.99072c0-24.45312 19.78368-44.27776 44.2368-44.27776h96.6656c24.45312 0 44.2368 19.82464 44.2368 44.2368v410.0096c0 24.3712-19.90656 44.27776-44.2368 44.27776z m-74.46528-66.39616h52.34688V351.15008H242.76992v365.73184z m551.44448 66.39616h-96.6656a44.2368 44.2368 0 0 1-44.2368-44.2368V328.99072c0-24.45312 19.78368-44.27776 44.2368-44.27776h96.6656c24.45312 0 44.2368 19.82464 44.2368 44.2368v410.0096c0 24.3712-19.78368 44.27776-44.2368 44.27776z m-74.38336-66.39616h52.34688V351.15008h-52.34688v365.73184z m-164.0448 61.97248h-96.6656a44.2368 44.2368 0 0 1-44.2368-44.2368V136.3968c0-24.45312 19.78368-44.27776 44.2368-44.27776h96.6656c24.45312 0 44.2368 19.82464 44.2368 44.2368v598.17984c0 24.3712-19.90656 44.27776-44.2368 44.27776z m-74.50624-66.39616h52.34688V158.5152H481.28v553.90208z m366.05952 179.65056H176.5376a33.1776 33.1776 0 1 1 0-66.43712h670.84288a33.1776 33.1776 0 1 1-0.08192 66.43712z" fill="#333333" p-id="112286"></path></svg>