<?xml version="1.0" standalone="no"?><!DOCTYPE svg PUBLIC "-//W3C//DTD SVG 1.1//EN" "http://www.w3.org/Graphics/SVG/1.1/DTD/svg11.dtd"><svg t="1718249787730" class="icon" viewBox="0 0 1024 1024" version="1.1" xmlns="http://www.w3.org/2000/svg" p-id="5895" width="256" height="256" xmlns:xlink="http://www.w3.org/1999/xlink"><path d="M1020.843947 486.485333c-5.888-34.602667-19.413333-71.765333-40.277334-110.72a296.106667 296.106667 0 0 0-9.258666-93.141333c-17.024-64.938667-54.016-121.685333-109.866667-168.789333l-1.109333-0.896-2.474667-1.706667A244.394667 244.394667 0 0 0 713.558613 64c-60.8 0-123.989333 22.058667-188.117333 65.621333-19.584-15.146667-54.314667-33.408-107.946667-33.408-50.901333 0-108.586667 16.896-171.434666 50.048-24.234667 7.253333-175.658667 57.6-228.138667 194.048-32.213333 83.797333-20.224 180.693333 35.626667 288.170667-9.216 30.208-29.568 101.461333-3.413334 154.325333 20.608 41.557333 97.877333 177.194667 227.626667 177.194667 9.984 0 20.181333-0.810667 30.208-2.432l1.450667-0.298667 9.728-2.090666c56.832-12.074667 72.234667-18.645333 236.416-165.888 2.261333 1.194667 4.736 2.56 7.253333 4.010666 20.650667 11.605333 48.981333 27.52 90.88 27.52 4.992 0 10.154667-0.213333 15.317333-0.682666l1.706667-0.213334 5.376-1.152c99.797333-22.058667 207.488-51.328 249.856-101.12 4.48-5.248 10.069333-11.178667 16.085333-17.493333 25.216-26.666667 59.776-63.146667 74.88-117.418667a220.714667 220.714667 0 0 0 3.882667-96.213333h0.042667v-0.042667z m-54.058667 24.746667h-211.456c-11.050667-9.386667-21.76-19.2-32.213333-29.397333a13.056 13.056 0 0 1-2.986667-7.552h239.488c3.712 13.226667 5.973333 25.514667 7.168 36.992z m-14.848-59.946667h-227.669333a264.106667 264.106667 0 0 1 16.597333-36.992h194.474667c6.656 13.013333 12.16 25.344 16.64 36.992z m-28.586667-73.728a39.253333 39.253333 0 0 0 0.725334 13.696h-172.970667c2.986667-15.018667 0.341333-27.136-4.565333-36.949333h177.664c0.128 9.173333-0.256 17.066667-0.853334 23.253333z m-0.682666-46.336h-193.706667c-3.669333-3.626667-6.826667-6.570667-8.704-9.002666-12.074667-15.786667-58.624-18.602667-58.624-18.602667l-30.805333 27.605333h-190.72l0.938666-26.538666s-15.957333-6.869333-18.346666-10.453334h492.501333c3.84 13.226667 6.144 25.642667 7.466667 36.992z m-402.432 120.064h-84.48l1.365333-36.992h101.12l-26.922667 24.149334 8.96 12.8z m16 23.04l25.728 36.949334h-128.298667l1.28-36.992h101.290667z m41.642666 59.946667l25.770667 36.992h-172.16l1.28-36.992h145.109333zM563.96928 391.253333h-125.994667l1.28-36.949333h165.973334l-41.258667 36.949333z m149.632-265.557333a188.672 188.672 0 0 1 94.890667 25.514667h-199.509334c36.010667-16.938667 71.04-25.514667 104.618667-25.514667zM332.715947 174.208h151.381333c10.368 6.229333 15.616 12.117333 16.768 13.44l15.488 22.826667 22.698667-16.853334c9.514667-6.997333 18.944-13.482667 28.288-19.456h272.298666c13.013333 12.245333 24.149333 24.618667 33.493334 36.992H245.24928a244.053333 244.053333 0 0 1 17.92-6.101333s49.194667-23.68 69.546667-30.848zM194.987947 234.197333h693.930666c7.637333 12.586667 13.653333 25.002667 18.517334 36.992H139.90528a345.301333 345.301333 0 0 1 55.082667-36.992zM115.286613 294.229333h297.045334c-18.218667 4.394667-37.717333 21.12-53.333334 36.992h-272.213333c8.234667-13.354667 17.792-25.770667 28.501333-36.992z m222.634667 60.032c-4.224 4.778667-7.210667 8.106667-8.533333 8.96-3.584 2.346667-30.805333-3.285333-55.253334-8.96h63.786667zM252.28928 594.346667l2.304 36.949333H112.12928a32.298667 32.298667 0 0 0-2.56-21.12l-8.405333-15.872h151.125333z m-146.645333 59.946666h150.357333l1.92 30.208s2.602667 2.816 6.528 6.784H96.982613c2.389333-14.08 5.888-27.306667 8.661334-36.992zM74.582613 354.261333H223.062613l-23.210666 22.101334v14.933333H62.294613c2.048-9.258667 10.837333-33.792 12.288-37.034667z m-16 59.989334h141.354667v36.992h-142.08a227.413333 227.413333 0 0 1 0.725333-36.992z m147.413334 60.032c6.656 9.813333 17.365333 25.728 24.234666 36.992H68.182613a307.541333 307.541333 0 0 1-7.893333-36.992H205.995947z m-130.645334 59.989333H240.12928c3.456 12.032 7.68 28.714667 9.813333 36.992H90.155947a447.232 447.232 0 0 1-14.805334-36.992z m232.874667 360.32l-9.344 2.005333a134.741333 134.741333 0 0 1-21.077333 1.664c-10.922667 0-21.418667-1.365333-31.488-3.882666h62.805333l-0.896 0.213333z m57.344-23.253333H196.310613a231.424 231.424 0 0 1-41.642666-36.992h258.901333c-20.48 17.237333-35.669333 28.8-48 36.992z m75.008-59.989334H135.851947a383.658667 383.658667 0 0 1-24.32-36.992h371.2c-15.786667 13.994667-29.696 26.282667-42.154667 36.992z m344.32-84.48c-31.146667 10.24-63.189333 18.346667-89.301333 24.448h-81.066667c-9.130667-3.712-17.322667-8.32-25.472-12.842666-10.069333-5.674667-19.626667-11.050667-30.378667-14.506667l-14.506666-4.608-11.733334 10.453333-23.893333 21.504h-409.173333c-4.48-10.453333-5.717333-23.466667-5.034667-36.992h197.802667c2.005333 0.853333 3.669333 1.28 4.864 0.853334l2.218666-0.853334h520.192c-11.392 4.608-22.912 8.789333-34.56 12.544z m117.461333-70.997333c-6.570667 6.954667-12.714667 13.44-18.218666 19.925333-3.2 3.84-8.917333 9.088-18.773334 15.530667H335.958613a29.013333 29.013333 0 0 0 2.901334-3.925333c4.394667-7.082667 7.978667-20.565333 10.325333-33.109334h554.709333a65.621333 65.621333 0 0 1-1.493333 1.578667z m22.485334-24.576H352.25728l0.085333-2.261333c0-10.24 29.653333-7.253333 48.554667-13.141334 18.901333-5.888 29.44-11.861333 29.44-11.861333l0.341333-9.728h188.928l17.664 25.429333c10.197333 2.261333 55.765333-12.032 97.194667-25.429333h216.192c-7.253333 13.696-16.213333 25.813333-25.813333 36.992z m35.669333-60.032h-162.005333c16.938667-11.946667-0.981333-23.68-0.981334-23.68l-15.573333-13.312h185.301333a141.653333 141.653333 0 0 1-6.741333 36.992z" fill="#707070" p-id="5896"></path></svg>