<?xml version="1.0" standalone="no"?><!DOCTYPE svg PUBLIC "-//W3C//DTD SVG 1.1//EN" "http://www.w3.org/Graphics/SVG/1.1/DTD/svg11.dtd"><svg t="1717943961329" class="icon" viewBox="0 0 1024 1024" version="1.1" xmlns="http://www.w3.org/2000/svg" p-id="25918" xmlns:xlink="http://www.w3.org/1999/xlink" width="200" height="200"><path d="M42.635636 44.962909V983.505455H981.178182V44.962909H42.635636z m0-40.494545H981.178182c22.341818 0 40.494545 18.152727 40.494545 40.494545V983.505455c0 22.341818-18.152727 40.494545-40.494545 40.494545H42.635636a40.494545 40.494545 0 0 1-40.494545-40.494545V44.962909c0-22.341818 18.152727-40.494545 40.494545-40.494545z" p-id="25919" fill="#515151"></path><path d="M346.996364 183.296c33.186909 1.396364 64.512 15.825455 87.133091 40.215273 15.313455 14.708364 27.694545 28.066909 40.820363 42.263272A1374.347636 1374.347636 0 0 0 586.472727 374.877091a253.858909 253.858909 0 0 1 67.770182 197.538909 261.399273 261.399273 0 0 1-68.421818 188.788364 350.021818 350.021818 0 0 1-225.978182 83.781818 281.646545 281.646545 0 0 1-56.413091-5.445818 161.373091 161.373091 0 0 1-130.699636-135.028364 869.701818 869.701818 0 0 1 0-319.627636A413.789091 413.789091 0 0 1 297.890909 195.956364a103.563636 103.563636 0 0 1 49.058909-12.567273z m13.032727 621.195636a308.922182 308.922182 0 0 0 199.68-74.100363l0.558545-0.465455a229.282909 229.282909 0 0 0 53.480728-158.487273 217.832727 217.832727 0 0 0-54.225455-166.306909 1409.861818 1409.861818 0 0 1-114.408727-112.034909 996.724364 996.724364 0 0 0-39.098182-40.494545 87.645091 87.645091 0 0 0-59.019636-28.858182c-10.472727 0.093091-20.712727 2.792727-29.882182 7.819636a390.656 390.656 0 0 0-105.006546 163.374546 845.870545 845.870545 0 0 0 0 297.890909c21.038545 70.562909 44.311273 95.557818 99.607273 106.961454 15.872 3.118545 32.069818 4.654545 48.267636 4.51491v0.186181z" p-id="25920" fill="#515151"></path><path d="M656.756364 962.839273l-28.532364-28.718546a825.437091 825.437091 0 0 0 171.287273-254.603636 461.917091 461.917091 0 0 0 16.058182-243.618909 284.997818 284.997818 0 0 0-180.503273-210.990546A488.494545 488.494545 0 0 1 442.181818 93.649455 219.322182 219.322182 0 0 1 393.914182 8.610909L433.431273 0c0 1.117091 28.858182 110.778182 216.715636 187.438545 104.727273 39.563636 181.992727 129.908364 204.8 239.52291 18.152727 88.529455 12.194909 180.363636-17.268364 265.774545a851.456 851.456 0 0 1-180.922181 270.103273z" p-id="25921" fill="#515151"></path></svg>