<?xml version="1.0" standalone="no"?><!DOCTYPE svg PUBLIC "-//W3C//DTD SVG 1.1//EN" "http://www.w3.org/Graphics/SVG/1.1/DTD/svg11.dtd"><svg t="1717944090461" class="icon" viewBox="0 0 1024 1024" version="1.1" xmlns="http://www.w3.org/2000/svg" p-id="27109" xmlns:xlink="http://www.w3.org/1999/xlink" width="200" height="200"><path d="M737.28 267.946667c-6.186667 6.293333-14.4 9.386667-22.613333 9.386666s-16.426667-3.093333-22.613334-9.386666L618.666667 194.56V501.333333c0 17.706667-14.293333 32-32 32s-32-14.293333-32-32v-306.773333l-73.386667 73.386667c-6.186667 6.293333-14.4 9.386667-22.613333 9.386666s-16.426667-3.093333-22.613334-9.386666a32 32 0 0 1 0-45.226667l128-128a32 32 0 0 1 45.226667 0l128 128a32 32 0 0 1 0 45.226667zM586.666667 938.666667a32 32 0 0 1-32-32V672a32 32 0 1 1 64 0v234.666667a32 32 0 0 1-32 32z" p-id="27110" fill="#515151"></path><path d="M938.666667 586.666667c0 0.853333 0 1.6-0.106667 2.346666-0.106667 0.853333-0.106667 1.706667-0.32 2.453334 0 0.426667-0.106667 0.853333-0.213333 1.28-0.106667 0.96-0.32 1.813333-0.64 2.773333-0.64 2.24-1.493333 4.373333-2.56 6.4-0.96 1.706667-2.133333 3.413333-3.413334 4.906667-0.64 0.853333-1.386667 1.706667-2.133333 2.453333l-128 128c-6.186667 6.293333-14.4 9.386667-22.613333 9.386667s-16.426667-3.093333-22.613334-9.386667a32 32 0 0 1 0-45.226667l73.386667-73.386666H256c-94.08 0-170.666667-76.586667-170.666667-170.666667s76.586667-170.666667 170.666667-170.666667c87.786667 0 160.426667 66.773333 169.706667 152.213334 0.64 6.08 0.96 12.16 0.96 18.453333v53.333333c0 17.706667-14.293333 32-32 32s-32-14.293333-32-32V448C362.666667 389.226667 314.773333 341.333333 256 341.333333S149.333333 389.226667 149.333333 448s47.893333 106.666667 106.666667 106.666667h573.44l-73.386667-73.386667a32 32 0 0 1 0-45.226667 32 32 0 0 1 45.226667 0l126.826667 126.826667c0.426667 0.32 0.746667 0.746667 1.173333 1.173333 0.746667 0.746667 1.493333 1.6 2.133333 2.453334 0.746667 0.746667 1.386667 1.6 1.92 2.56 0.64 0.853333 1.173333 1.813333 1.6 2.666666 1.066667 1.92 1.92 3.946667 2.453334 6.08 0.32 0.853333 0.533333 1.813333 0.64 2.773334 0.106667 0.426667 0.213333 0.853333 0.213333 1.28 0.213333 0.853333 0.32 1.6 0.32 2.453333 0.106667 0.746667 0.106667 1.493333 0.106667 2.346667z" p-id="27111" fill="#515151"></path><path d="M394.666667 938.666667a32 32 0 0 1-32-32V672a32 32 0 1 1 64 0v234.666667a32 32 0 0 1-32 32zM426.666667 437.333333v10.666667c0-6.293333-0.32-12.373333-0.96-18.453333 0.64 2.453333 0.96 5.12 0.96 7.786666z" p-id="27112" fill="#515151"></path></svg>