<?xml version="1.0" standalone="no"?><!DOCTYPE svg PUBLIC "-//W3C//DTD SVG 1.1//EN" "http://www.w3.org/Graphics/SVG/1.1/DTD/svg11.dtd"><svg t="1717944346856" class="icon" viewBox="0 0 1027 1024" version="1.1" xmlns="http://www.w3.org/2000/svg" p-id="32545" xmlns:xlink="http://www.w3.org/1999/xlink" width="200.5859375" height="200"><path d="M330.322581 594.580645h33.032258v231.225807h-33.032258v-231.225807z m363.354838-66.064516h33.032258v231.225806h-33.032258v-231.225806z m-16.516129-293.987097c0-92.490323-75.974194-165.16129-165.16129-165.16129s-165.16129 75.974194-165.16129 165.16129c0 56.154839 56.154839 148.645161 165.16129 274.167742 112.309677-125.522581 165.16129-221.316129 165.16129-274.167742z m-165.16129 369.961291c-155.251613-161.858065-231.225806-287.380645-231.225806-373.264517 0-128.825806 102.4-231.225806 231.225806-231.225806s231.225806 102.4 231.225806 231.225806c0 85.883871-75.974194 211.406452-231.225806 373.264517z m0-346.83871c-16.516129 0-33.032258-9.909677-42.941935-23.122581-9.909677-13.212903-9.909677-33.032258 0-46.245161 9.909677-13.212903 23.122581-23.122581 42.941935-23.122581 26.425806 0 46.245161 19.819355 46.245161 46.245162 0 26.425806-23.122581 46.245161-46.245161 46.245161z m-161.858065 749.832258h-16.516129L26.425806 924.903226c-16.516129-6.606452-26.425806-16.516129-26.425806-33.032258V297.290323c0-23.122581 19.819355-36.335484 42.941935-33.032258l168.464517 46.245161c16.516129 3.303226 29.729032 23.122581 23.12258 39.638709s-23.122581 29.729032-39.638709 23.122581l-128.825807-33.032258v525.212903l277.470968 75.974194L687.070968 858.83871h16.516129l257.651613 56.154838v-528.516129l-138.735484-36.335484c-16.516129-3.303226-26.425806-23.122581-23.122581-39.638709s23.122581-26.425806 39.63871-23.122581l165.16129 42.941936c13.212903 3.303226 23.122581 16.516129 23.122581 33.032258v594.580645c0 19.819355-19.819355 36.335484-39.63871 33.032258L693.677419 924.903226l-343.535484 82.580645z" fill="#515151" p-id="32546"></path></svg>