<?xml version="1.0" standalone="no"?><!DOCTYPE svg PUBLIC "-//W3C//DTD SVG 1.1//EN" "http://www.w3.org/Graphics/SVG/1.1/DTD/svg11.dtd"><svg t="1718303786227" class="icon" viewBox="0 0 1024 1024" version="1.1" xmlns="http://www.w3.org/2000/svg" p-id="2626" xmlns:xlink="http://www.w3.org/1999/xlink" width="256" height="256"><path d="M291.43 928.45L97.55 734.57c-121.86-121.87-121.86-321.28 0-443.15L291.43 97.55c121.86-121.87 321.28-121.87 443.15 0l193.88 193.88c121.87 121.87 121.87 321.28 0 443.15L734.57 928.45c-121.86 121.87-321.28 121.87-443.14 0z" fill="#FA936D" p-id="2627"></path><path d="M373.33 758.98c-39.59-27.58-53.9-77.98-34.44-121.14 8.58 19.93 27.27 34.13 49.38 37.48-24.54-42.44-16.23-95.48 20.19-129.05 0 58.42 83.82 98.79 83.82 131.96a219.613 219.613 0 0 1-24.69 80.03c66.58-8.42 121.4-54.45 139.2-116.82a149.087 149.087 0 0 1-56.88 41.84c35.49-22.53 56.86-60.74 56.88-101.7 0-33.16-22.46-45.41-35.18-62.72-12.72-17.31 0-49.05 0-49.05-16.84 8.38-27.12 25.94-26.17 44.73a154.716 154.716 0 0 1-17.22 47.57c0-121.14-60.63-188.93-60.63-216.31 1.65-21.9 9.42-42.89 22.44-60.58-111.36 13.82-192.73 108.27-186.32 216.33-20.94-10.8-23.94-54.81-23.94-54.81-57.12 53.84-72.44 136.68-38.16 206.24a394.07 394.07 0 0 1-42.66-25.24c14.95 79.23 88.65 135.45 172.11 131.24h2.27zM672.93 704.09h88.18v44.09h-88.18v-44.09z m0-88.19h88.18V660h-88.18v-44.1z m0-88.18h88.18v44.09h-88.18v-44.09z m0-88.18h88.18v44.09h-88.18v-44.09z m0-88.18h88.18v44.09h-88.18v-44.09z m0-88.18h88.18v44.09h-88.18v-44.09z" fill="#FFFFFF" p-id="2628"></path></svg>