<?xml version="1.0" standalone="no"?><!DOCTYPE svg PUBLIC "-//W3C//DTD SVG 1.1//EN" "http://www.w3.org/Graphics/SVG/1.1/DTD/svg11.dtd"><svg t="1717945607074" class="icon" viewBox="0 0 1024 1024" version="1.1" xmlns="http://www.w3.org/2000/svg" p-id="121834" xmlns:xlink="http://www.w3.org/1999/xlink" width="200" height="200"><path d="M885.201455 632.645818a26.065455 26.065455 0 0 1 14.661818 33.838546 417.140364 417.140364 0 0 1-388.002909 263.773091 415.557818 415.557818 0 0 1-183.854546-42.589091l10.984727 47.522909a26.065455 26.065455 0 1 1-50.78109 11.729454l-23.45891-101.562182a26.065455 26.065455 0 0 1 12.008728-28.25309 22.434909 22.434909 0 0 1 5.12-3.351273 21.876364 21.876364 0 0 1 5.306182-2.466909l99.141818-32.209455a26.065455 26.065455 0 0 1 16.151272 49.570909l-45.847272 14.894546a363.52 363.52 0 0 0 155.229091 34.583272 365.009455 365.009455 0 0 0 339.502545-230.818909 26.065455 26.065455 0 0 1 33.838546-14.661818z m-114.036364-518.050909l26.996364 100.677818c1.442909 5.306182 1.117091 10.705455-0.605091 15.499637a25.972364 25.972364 0 0 1-20.014546 19.921454l-101.981091 21.690182a26.065455 26.065455 0 0 1-10.845091-51.013818l50.967273-10.845091a364.916364 364.916364 0 0 0-529.361454 467.781818 26.065455 26.065455 0 1 1-46.452364 23.598546A417.047273 417.047273 0 0 1 728.622545 156.858182l-7.77309-28.858182a26.065455 26.065455 0 1 1 50.362181-13.451636z m-265.402182 179.060364c14.429091 0 26.065455 11.636364 26.065455 26.065454v223.185455l105.425454 105.425454a26.065455 26.065455 0 0 1-36.864 36.864l-109.661091-109.614545a26.065455 26.065455 0 0 1-11.031272-21.271273v-234.589091c0-14.429091 11.636364-26.065455 26.065454-26.065454z m390.376727 217.460363a36.491636 36.491636 0 1 1 0 72.983273 36.491636 36.491636 0 0 1 0-72.983273z m-10.938181-133.445818a36.491636 36.491636 0 1 1 0 72.983273 36.491636 36.491636 0 0 1 0-72.983273z m-53.992728-112.965818a36.491636 36.491636 0 1 1 0 72.983273 36.491636 36.491636 0 0 1 0-72.983273z" fill="#515151" p-id="121835"></path></svg>