<?xml version="1.0" standalone="no"?><!DOCTYPE svg PUBLIC "-//W3C//DTD SVG 1.1//EN" "http://www.w3.org/Graphics/SVG/1.1/DTD/svg11.dtd"><svg t="1717942703936" class="icon" viewBox="0 0 1199 1024" version="1.1" xmlns="http://www.w3.org/2000/svg" p-id="9212" xmlns:xlink="http://www.w3.org/1999/xlink" width="234.1796875" height="200"><path d="M358.871399 548.647461H222.013662l134.120582-156.930205-32.541728-37.103653h-28.892189l14.598158-16.422929-14.598158-16.727057h29.500445l6.994951-7.603207-78.465102-107.965548-84.243541 115.568755h42.273835l-126.517375 144.765073h72.078408L27.979804 620.42174H133.816454L0 794.079002h196.466884v106.140778h112.527473v-106.140778h131.079299v-27.371547H185.518266l173.353133-218.059994z" fill="#366476" p-id="9213"></path><path d="M1021.566974 505.157113l-32.845857-39.232551h72.078408l-126.821503-144.156816h41.969706l-84.547669-115.872884-78.160974 108.269676 6.994951 7.603208h30.412831l-14.598159 16.727056 14.902287 16.118801h-30.41283l-31.933472 37.711909 85.460053 100.362341a260.0297 260.0297 0 0 0-35.278883 8.819721l-149.631126-174.265519h93.671518l-163.621028-182.476982h54.438967L564.462132 0.304128l-108.877932 145.069201h54.743094l-163.925156 182.476983h92.455005L273.715474 521.275913h136.857737l-173.049005 218.364123h254.251262v133.208197h145.677457v-133.208197l16.727057-20.072468a249.385209 249.385209 0 0 0-2.433026 34.06237v4.561924a270.065934 270.065934 0 0 0 271.282447 265.50401h4.866053a270.065934 270.065934 0 0 0 271.282447-265.50401v-4.561924a267.328779 267.328779 0 0 0-177.610929-248.472825z m-229.008613 16.1188a296.829225 296.829225 0 0 0-44.706861 30.412831l-30.412831-30.412831z m135.337095 456.192456h-4.866053a223.230175 223.230175 0 0 1-224.14256-219.276507v-4.561924a221.101277 221.101277 0 0 1 49.572913-138.682507l97.625186 95.496287a180.348084 180.348084 0 0 0-60.825661 121.651322 116.48114 116.48114 0 0 0 118.001782 118.001782c43.794476 0 63.258687-50.789427 63.258688-50.789427l16.727056-16.727056a27.067419 27.067419 0 0 1 25.242649 0 26.459162 26.459162 0 0 0 18.247699 3.649539l43.186219 42.273835a226.575587 226.575587 0 0 1-142.027918 48.964656z m-77.856846-327.546183a60.825661 60.825661 0 0 1 21.59311 20.984853z m14.598159 78.160974l10.036234 9.732106a334.541135 334.541135 0 0 0-17.639442 30.41283c-6.994951 12.46926-18.247698 15.510544-20.984853 0-1.82477-6.082566 12.46926-22.505495 28.588061-40.144936z m288.009504 30.41283a221.101277 221.101277 0 0 1-49.572914 138.682507l-35.88714-34.974755a47.139887 47.139887 0 0 0 17.031185-37.71191c0-21.897238-42.273834-45.619246-50.485298-50.485298s-10.948619-13.077517 0-20.984853 18.551827-18.855955 8.515592-30.41283a225.359073 225.359073 0 0 0-16.727056-16.727057s-3.953668-9.732106-4.257797 3.953668-5.778438 54.743095-30.41283 50.789427a10.644491 10.644491 0 0 1-8.515593-12.773389c2.128898-10.644491 30.41283-36.191268 30.412831-59.000891a53.526582 53.526582 0 0 0-16.727057-37.71191s12.773389 19.464211 0 33.454114-41.665578 24.938521-42.273834 50.485298a40.449064 40.449064 0 0 0 3.649539 18.551827l-22.201366-21.59311c20.984853-33.454113 56.567865-86.676567 56.567865-110.398574 0-34.06237-48.964657-59.305019-109.48619-59.000891 0 0 71.470151 38.928423 71.470152 71.470151 0 17.335313-23.113751 30.41283-51.701812 65.387585l-8.819721-8.515592a32.2376 32.2376 0 0 0 5.778438-14.598159 42.577963 42.577963 0 0 0-46.835759-37.407781h-13.077517l-57.480249-56.263736a226.575587 226.575587 0 0 1 141.419661-48.356401h4.866053a223.230175 223.230175 0 0 1 224.14256 219.276508z" fill="#366476" p-id="9214"></path></svg>