<?xml version="1.0" standalone="no"?><!DOCTYPE svg PUBLIC "-//W3C//DTD SVG 1.1//EN" "http://www.w3.org/Graphics/SVG/1.1/DTD/svg11.dtd"><svg t="1717926449929" class="icon" viewBox="0 0 1024 1024" version="1.1" xmlns="http://www.w3.org/2000/svg" p-id="7988" xmlns:xlink="http://www.w3.org/1999/xlink" width="200" height="200"><path d="M512.320461 0.000642a361.54352 361.54352 0 0 1 361.864322 360.901916c0 184.46098-295.458369 590.275134-329.142548 636.149778l-12.511266 16.681689a25.664136 25.664136 0 0 1-20.210508 10.265654 25.343335 25.343335 0 0 1-20.531309-10.265654l-12.511266-16.681689C445.593707 951.177693 149.814536 545.363538 149.814536 360.902558A361.864322 361.864322 0 0 1 512.320461 0.000642z" fill="#7A85CA" p-id="7989"></path><path d="M736.560852 368.280997a23.418524 23.418524 0 0 0-3.84962-7.699241L659.889245 288.722175V221.353817a12.832068 12.832068 0 0 0-12.511267-12.511266h-20.85211a12.511266 12.511266 0 0 0-12.190465 12.511266v12.511266a3.84962 3.84962 0 0 1 0 2.245612h-1.92481-3.208017l-87.899667-86.61646a13.473672 13.473672 0 0 0-10.265655-4.491223 17.964895 17.964895 0 0 0-8.982447 3.84962l-210.445918 211.729124a22.135318 22.135318 0 0 0-1.604008 22.45612l1.604008 3.528818a27.588947 27.588947 0 0 0 13.794474 14.115275h43.629031v166.496084a14.756878 14.756878 0 0 0 13.794473 13.473672h297.703981a13.473672 13.473672 0 0 0 13.794474-13.473672v-165.212877h42.345824a23.739326 23.739326 0 0 0 16.681689-12.190465 39.779411 39.779411 0 0 0 3.208017-21.493714z m-183.498574 168.420895H468.370628a2.245612 2.245612 0 0 1-2.245612-1.924811v-91.428485a11.548861 11.548861 0 0 1 11.548861-11.548861h66.085151a11.548861 11.548861 0 0 1 11.22806 11.548861v91.107684c0 1.604009 0 2.245612-1.92481 2.245612z" fill="#FFFFFF" p-id="7990"></path></svg>