<?xml version="1.0" standalone="no"?><!DOCTYPE svg PUBLIC "-//W3C//DTD SVG 1.1//EN" "http://www.w3.org/Graphics/SVG/1.1/DTD/svg11.dtd"><svg t="1717944595578" class="icon" viewBox="0 0 1024 1024" version="1.1" xmlns="http://www.w3.org/2000/svg" p-id="39334" xmlns:xlink="http://www.w3.org/1999/xlink" width="200" height="200"><path d="M682.485814 785.126766c18.810427 0 34.101897 15.29147 34.101897 34.101898v170.637448a34.101897 34.101897 0 1 1-68.267776 0V819.228664c0-18.810427 15.29147-34.101897 34.165879-34.101898z m136.47157-102.369673c18.810427 0 34.101897 15.29147 34.101897 34.101898v273.007121a34.101897 34.101897 0 1 1-68.267775 0V716.858991c0-18.810427 15.355451-34.101897 34.165878-34.101898z m136.47157 170.573468c18.874408 0 34.101897 15.355451 34.101897 34.165878v102.369673a34.101897 34.101897 0 1 1-68.203794 0v-102.369673c0-18.874408 15.227489-34.165878 34.101897-34.165878zM504.170639 6.733365c0 5.950237 149.267779 123.867304 364.244093 123.867305 17.14692 0 34.29384 10.812797 35.701424 27.191944l0.127962 2.303318v416.260682c0 14.71564-2.879147 31.734599-8.189574 50.225121a198.85309 198.85309 0 0 0-60.973937-40.180096 94.691948 94.691948 0 0 0 0.895735-10.045025v-373.649306c-173.132709-5.886256-304.549777-81.959719-352.279637-117.085314-94.500004 87.206165-244.407594 108.447872-329.630347 115.677731l-17.530807 1.343602V558.185997c0 117.085313 191.943137 380.495278 341.210917 380.495279 18.042655 0 36.597158-3.64692 55.407585-10.236968 8.445498 12.924171 18.106636 24.952608 28.919433 35.957348 7.037915 7.229858 14.459716 13.947868 22.137442 20.21801-32.630333 14.203792-65.580572 22.265404-97.954981 22.265404-183.241715 0-413.317555-289.002383-417.92419-437.886276l-0.063981-4.478673V157.280766c0-9.981043 0.511848-15.355451 5.950237-20.79384 4.990522-4.862559 9.981043-5.758294 18.426541-5.822275h5.50237c89.573464 0 286.635084-23.672987 364.244093-117.981049 11.900474-11.836493 29.815167-17.72275 41.779622-5.950237z m-9.405213 641.921831c15.739337 0 31.542655 13.627963 41.587679 29.559243a233.914703 233.914703 0 0 0-21.753555 68.843605 50.992893 50.992893 0 0 1-71.018961-47.218012c0-28.471565 22.777252-51.184836 51.184837-51.184836z m8.57346-375.376795c40.116116 0 42.483414 31.926542 42.611376 50.672988v3.390996L536.481067 561.38505c0 17.978674-14.203792 36.021329-28.407584 36.021328-18.042655 0-31.862561-16.379148-37.172987-33.462086l-0.767773-2.559242L460.663528 327.214423l0.063981-4.478673c0.63981-23.161139 7.037915-49.521329 42.611377-49.52133z" p-id="39335" fill="#515151"></path></svg>