<?xml version="1.0" standalone="no"?><!DOCTYPE svg PUBLIC "-//W3C//DTD SVG 1.1//EN" "http://www.w3.org/Graphics/SVG/1.1/DTD/svg11.dtd"><svg t="1718250761456" class="icon" viewBox="0 0 1024 1024" version="1.1" xmlns="http://www.w3.org/2000/svg" p-id="13389" xmlns:xlink="http://www.w3.org/1999/xlink" width="256" height="256"><path d="M512 234.666667c-153.6 0-277.333333 123.733333-277.333333 277.333333s123.733333 277.333333 277.333333 277.333333 277.333333-123.733333 277.333333-277.333333-123.733333-277.333333-277.333333-277.333333z m-40.533333 46.933333l-189.866667 189.866667c17.066667-98.133333 91.733333-172.8 189.866667-189.866667z m-192 251.733333l256-256c17.066667 2.133333 34.133333 4.266667 49.066666 10.666667L288 584.533333c-4.266667-17.066667-8.533333-32-8.533333-51.2z m27.733333 93.866667l320-320c12.8 6.4 25.6 14.933333 36.266667 25.6L330.666667 661.333333c-8.533333-10.666667-17.066667-21.333333-23.466667-34.133333z m55.466667 66.133333L693.333333 362.666667c8.533333 10.666667 17.066667 23.466667 25.6 36.266666l-320 320c-14.933333-8.533333-25.6-17.066667-36.266666-25.6z m128 51.2c-17.066667-2.133333-34.133333-4.266667-49.066667-10.666666l296.533333-296.533334c4.266667 14.933333 8.533333 32 10.666667 49.066667L490.666667 744.533333z m61.866666-2.133333l189.866667-189.866667c-17.066667 98.133333-91.733333 172.8-189.866667 189.866667z" fill="#707070" p-id="13390"></path><path d="M789.333333 185.6C614.4 149.333333 430.933333 147.2 256 181.333333l-21.333333 4.266667c-87.466667 19.2-149.333333 93.866667-149.333334 183.466667v285.866666c0 89.6 61.866667 164.266667 149.333334 183.466667 177.066667 36.266667 358.4 38.4 535.466666 4.266667l21.333334-4.266667c87.466667-19.2 149.333333-93.866667 149.333333-183.466667V369.066667c-2.133333-87.466667-64-164.266667-151.466667-183.466667z m106.666667 469.333333c0 68.266667-46.933333 128-115.2 140.8-177.066667 38.4-360.533333 38.4-537.6 0-68.266667-12.8-115.2-72.533333-115.2-140.8V369.066667c0-68.266667 46.933333-128 115.2-140.8 177.066667-38.4 360.533333-38.4 537.6 0 66.133333 14.933333 115.2 72.533333 115.2 140.8v285.866666z" fill="#707070" p-id="13391"></path></svg>