<?xml version="1.0" standalone="no"?><!DOCTYPE svg PUBLIC "-//W3C//DTD SVG 1.1//EN" "http://www.w3.org/Graphics/SVG/1.1/DTD/svg11.dtd"><svg t="1717943160313" class="icon" viewBox="0 0 1024 1024" version="1.1" xmlns="http://www.w3.org/2000/svg" p-id="11016" xmlns:xlink="http://www.w3.org/1999/xlink" width="200" height="200"><path d="M957.217503 544.125675c-1.515516-15.111163-4.207835-30.043247-7.666611-44.598754-1.715061-7.272637-3.654226-14.46034-5.590321-21.427009-0.959861-3.474125-1.917676-6.904247-2.742461-10.112312a110.304222 110.304222 0 0 1-0.792039-3.297092c5.223978-11.088546 9.181103-22.838148 11.608386-34.878369 2.843768-13.772678 3.721765-27.863604 3.012613-41.729403-0.743944-13.869892-3.1262-27.520797-6.754844-40.675398-3.629667-13.163811-8.44023-25.879414-14.196327-38.040385-5.749958-12.169157-12.398378-23.815405-19.74367-34.929534a312.596508 312.596508 0 0 0-24.033369-31.734771c-17.282618-20.062941-36.774555-38.030152-57.865919-53.825906a377.649106 377.649106 0 0 0-32.830733-22.00313c-11.314697-6.77531-23.027459-12.897751-35.035957-18.415419-24.015973-11.032264-49.323359-19.484773-75.418691-24.885783a321.139068 321.139068 0 0 0-39.638789-5.638417 294.405193 294.405193 0 0 0-40.21491-0.420579 293.590642 293.590642 0 0 0-40.037878 5.070482 291.39872 291.39872 0 0 0-30.252001 7.748475c-14.012132-6.737448-28.489868-12.833283-43.605124-17.844414-18.033725-5.904477-37.002752-10.360975-56.929594-11.779277-9.950629-0.698918-20.129456-0.60989-30.367634 0.549515-10.232039 1.160429-20.520359 3.413749-30.473036 6.924713a128.987746 128.987746 0 0 0-28.337395 14.083763 135.742591 135.742591 0 0 0-23.89727 20.150946c-14.175861 15.025205-24.658609 32.29759-32.686446 49.945529-8.021697 17.703197-13.675464 35.918048-17.885346 54.184063-2.100848 9.138124-3.823072 18.305925-5.249561 27.453259a417.785222 417.785222 0 0 0-1.662872 11.813046 846.929142 846.929142 0 0 0-7.182587 0.334622c-9.150404 0.503467-18.321274 1.223874-27.508517 2.229784-18.36937 2.022053-36.830837 5.15644-55.177693 10.242272-9.171893 2.530636-18.300808 5.607718-27.291577 9.394974-8.995885 3.744277-17.84953 8.243755-26.36753 13.594623-8.490372 5.39794-16.657378 11.672854-23.994484 19.049868-7.360641 7.326872-13.873985 15.733333-19.080568 24.886806-5.229095 9.141194-9.146311 18.983353-11.738345 28.981055-2.620687 10.005888-3.847631 20.158109-4.161786 30.121018-0.590448 19.97596 2.551102 39.168068 7.379061 57.398268 4.900613 18.237363 11.523451 35.626405 19.224853 52.321646 7.719822 16.693194 16.458857 32.727379 25.916253 48.250934a542.105668 542.105668 0 0 0 14.765285 22.900569 511.360434 511.360434 0 0 0 7.826246 11.178597l3.086292 4.209882c-7.980765 18.312064-15.130605 37.095873-20.707625 56.568367-3.179412 11.210319-5.954619 22.606881-7.78122 34.29099-1.866511 11.661597-2.928702 23.576975-2.733251 35.642779 0.157589 12.047384 1.705851 24.287149 5.059226 36.19434 3.345188 11.899004 8.697079 23.426549 15.997346 33.547047 7.265474 10.144034 16.33299 18.847254 26.317389 25.787316 9.984399 6.974855 20.791535 12.329816 31.838125 16.485463 11.072173 4.126994 22.400173 7.081279 33.769105 9.247618 11.375072 2.161223 22.804379 3.53757 34.217313 4.341888 22.836101 1.557472 45.588291 0.952698 68.130703-0.907672 22.542412-1.925862 44.897559-5.077645 67.019393-9.258875a725.0677 725.0677 0 0 0 33.008788-6.985088c10.940167-2.572592 21.820981-5.392824 32.578999-8.591679-10.982122 2.302439-22.039969 4.167926-33.100885 5.92085a886.647749 886.647749 0 0 1-33.267685 4.505617 804.471145 804.471145 0 0 1-33.362852 3.122107 628.346845 628.346845 0 0 1-33.384341 1.540076c-22.23235 0.454348-44.456514-0.316202-66.26931-3.113921-10.903328-1.373277-21.694091-3.287883-32.232098-5.898336-10.531867-2.613524-20.817118-5.930059-30.54876-10.184967-9.734712-4.225231-18.921955-9.404184-27.03268-15.69854-8.125051-6.27082-15.07637-13.72049-20.467147-22.096251-5.392824-8.375761-9.224082-17.666358-11.530615-27.456329-2.292206-9.797134-3.177366-20.046568-2.851954-30.41266 0.287549-10.365068 1.664919-20.828374 3.803629-31.220049 2.091638-10.400884 4.983501-20.744463 8.327666-30.980595 6.715959-20.48352 15.500019-40.500413 25.270547-60.078307l3.805675-7.624654-5.420453-7.591909-1.73962-2.437515-1.807159-2.591012-3.595898-5.273097a474.012827 474.012827 0 0 1-7.003508-10.758018 513.069355 513.069355 0 0 1-13.196556-22.068621c-8.414647-14.918781-16.078187-30.213116-22.658046-45.806255-6.568602-15.584953-12.146645-31.460526-15.943111-47.454802-3.773953-15.965623-5.805216-32.084743-4.895497-47.433312 0.876973-15.3455 4.774747-29.741371 12.148692-41.933042 7.293103-12.240789 18.145266-22.277376 31.153534-30.105668 13.038968-7.824199 28.062126-13.44522 43.794435-17.543562 15.752776-4.109598 32.251541-6.690376 48.990784-8.263197 8.374738-0.785899 16.818037-1.319042 25.299199-1.653663 4.245697-0.146333 8.494465-0.275269 12.757559-0.327458 2.12643-0.050142 4.263094-0.045025 6.395663-0.055258l3.200902-0.01228 0.800226-0.00307c3.885494 2.623757 16.521279-7.04751 17.086143-9.199523 1.408069-2.189875 1.755993-3.206018 2.084475-3.968381 0.565888-1.446955 0.744967-2.174526 0.89744-2.717901 0.291642-1.104147 0.400113-1.679245 0.512676-2.238994l0.245593-1.356904c0.258896-1.558495 0.418532-2.728134 0.585332-3.9121l0.456394-3.374864 0.87902-6.431479a569.156768 569.156768 0 0 1 1.910513-12.532431c1.37123-8.280594 2.992147-16.457834 4.923126-24.509207 3.859911-16.08535 8.93551-31.696909 15.639189-46.103014 6.693446-14.385639 15.063067-27.548426 25.270546-38.132482 10.178827-10.615779 22.12081-18.577101 35.553751-23.216771 13.407358-4.695952 28.279067-6.147 43.589774-5.002944 15.321964 1.125637 31.006178 4.748141 46.475497 9.880021 15.498996 5.109368 30.832216 11.709693 45.868677 19.240203l8.194637 4.103458 8.604981-3.02694a248.924349 248.924349 0 0 1 33.124422-9.146311 250.696716 250.696716 0 0 1 34.132378-4.427846c11.481496-0.721431 23.030529-0.576121 34.561144 0.208755a278.887778 278.887778 0 0 1 34.446533 4.571109c22.806425 4.498454 45.201481 11.715833 66.609047 21.310351 10.709923 4.786003 21.162995 10.177803 31.360242 16.030092a336.495824 336.495824 0 0 1 29.611411 19.182898c19.056008 13.808494 36.707017 29.590945 52.265364 47.093574 15.537881 17.492396 29.118178 36.667108 39.385009 57.242726 5.142114 10.273994 9.408277 20.893866 12.648065 31.713282a161.441902 161.441902 0 0 1 6.28617 32.871665c0.870834 11.019984 0.485047 22.044062-1.418302 32.770358-1.850138 10.737552-5.240351 21.150716-9.945513 31.022551l-1.939166 4.066618 0.14224 3.750418c0.158612 4.233418 0.748037 6.479575 1.230014 8.748244a126.159328 126.159328 0 0 0 1.572822 6.028297c1.067308 3.729951 2.139733 7.196912 3.185552 10.629082 2.089591 6.837732 4.079922 13.487176 5.89936 20.155039 3.624551 13.317307 6.469342 26.672476 8.266268 40.140209 1.787716 13.45443 2.544963 26.995841 2.070148 40.480969-0.488117 13.481036-2.095731 26.909883-4.987594 40.095184-2.871397 13.18837-7.013741 26.123984-12.290931 38.645158-5.251607 12.536524-11.724019 24.607444-19.044752 36.2189-7.336082 11.606339-15.621792 22.700001-24.655539 33.233915-9.018398 10.552334-18.781762 20.546965-29.06599 30.051434-10.269901 9.525957-21.094434 18.532075-32.319079 27.075658-5.593392 4.298909-11.342326 8.407484-17.12196 12.485359-5.820566 4.02057-11.678994 8.001231-17.642822 11.842723-11.892865 7.732102-24.119327 15.002692-36.546357 21.960151a846.890256 846.890256 0 0 1-37.886889 19.897166c-12.811794 6.325056-25.812899 12.300141-38.914288 18.082843-13.108552 5.776563-26.352181 11.272741-39.693024 16.556071-13.331633 5.310959-26.78811 10.338463-40.303938 15.22475a1840.85315 1840.85315 0 0 1-40.767496 14.141068c13.988596-3.387144 27.934213-6.989181 41.816385-10.851139a1203.972954 1203.972954 0 0 0 41.46232-12.325723c13.745049-4.389984 27.414373-9.052167 40.999786-13.990642 13.586436-4.935406 27.053146-10.238179 40.416502-15.833617 13.362332-5.599532 26.593681-11.56029 39.642882-17.952884 13.049201-6.389524 25.957185-13.132088 38.607296-20.400632a530.158568 530.158568 0 0 0 37.162388-23.290449c12.092409-8.290827 23.865547-17.133216 35.174104-26.627451a368.096543 368.096543 0 0 0 32.291451-30.543643c10.177803-10.865465 19.682271-22.471804 28.268833-34.819017 17.192567-24.656563 30.479175-52.538587 38.115086-82.134649a243.831354 243.831354 0 0 0 7.287987-45.190225c1.037632-15.238053 0.674359-30.538527-0.837064-45.649689zM284.713972 285.346887l-3.418866 0.065491h-0.033769c1.782599-0.613984 3.340071-0.757247 4.307096-0.082887l-0.854461 0.017396z m655.163607 176.293145l-0.004093 0.01842c-0.01842-0.220011-0.008186-0.299829 0.004093-0.01842z" fill="#515151" p-id="11017"></path><path d="M442.292893 795.19999l-0.070608-0.040932c0.010233 0.019443 0.01842 0.039909 0.02763 0.059352l0.042978-0.01842z" fill="#515151" p-id="11018"></path><path d="M541.928125 494.713288c88.652086 63.005986 126.533858 199.406562 75.484181 300.505122 271.514857-156.267043 67.509557-390.042367 31.995715-416.403758 11.847839 26.333762 14.077623 70.934562-9.824762 92.566232C599.095126 315.251987 498.98815 283.253202 498.98815 283.253202c11.83249 80.520895-42.914392 168.561044-95.706759 234.349399-1.860371-32.109302-3.823072-54.268998-20.417005-84.985579-3.730974 58.329477-47.546899 105.865119-59.424414 164.305113-16.072047 79.114872 12.027941 137.055492 118.782313 198.237946-33.520441-70.962192-15.635095-111.641683 10.139941-149.950173 28.244274-41.97909 35.530215-83.527368 35.530215-83.527369s22.204721 29.356608 13.33061 75.244728c39.231513-44.397163 46.605457-115.117854 40.705074-142.213979z" fill="#515151" p-id="11019"></path></svg>