<?xml version="1.0" standalone="no"?><!DOCTYPE svg PUBLIC "-//W3C//DTD SVG 1.1//EN" "http://www.w3.org/Graphics/SVG/1.1/DTD/svg11.dtd"><svg t="1717926661856" class="icon" viewBox="0 0 1024 1024" version="1.1" xmlns="http://www.w3.org/2000/svg" p-id="14723" xmlns:xlink="http://www.w3.org/1999/xlink" width="200" height="200"><path d="M889.667368 419.920842c0-210.297263-164.432842-382.005895-371.2-392.434526C284.752842 15.683368 97.953684 201.781895 107.789474 436.655158a393.108211 393.108211 0 0 0 205.850947 329.566316 153.653895 153.653895 0 0 1 54.649263 49.717894l103.936 155.162948a30.854737 30.854737 0 0 0 51.253895 0l103.154526-153.950316a154.085053 154.085053 0 0 1 55.430737-50.122105 393.135158 393.135158 0 0 0 207.629474-347.082106z" fill="#F759AB" p-id="14724"></path><path d="M205.392842 419.920842c0 105.229474 55.861895 202.455579 146.566737 255.08379a291.974737 291.974737 0 0 0 293.160421 0 294.750316 294.750316 0 0 0 146.566737-255.08379c0-105.229474-55.861895-202.455579-146.593684-255.056842a291.974737 291.974737 0 0 0-293.133474 0 294.750316 294.750316 0 0 0-146.593684 255.056842z" fill="#FFFFFF" p-id="14725"></path><path d="M273.973895 425.714526a229.726316 229.726316 0 0 0 114.229894 198.790737 227.570526 227.570526 0 0 0 228.486737 0 229.726316 229.726316 0 0 0 114.229895-198.790737 229.726316 229.726316 0 0 0-114.256842-198.817684 227.570526 227.570526 0 0 0-228.45979 0 229.726316 229.726316 0 0 0-114.256842 198.817684z" fill="#F759AB" p-id="14726"></path><path d="M655.952842 449.751579c-9.835789 24.980211-19.887158 49.906526-29.426526 73.781895l-43.600842-44.786527c29.318737-42.226526 30.181053-87.120842 0.512-132.284631l43.385263-44.597895c12.234105 32.687158 25.330526 65.212632 36.432842 98.438737 5.632 16.788211-1.050947 33.549474-7.27579 49.448421z m-225.145263-124.604632l-42.118737-42.954105c24.441263-9.862737 51.738947-21.153684 79.225263-31.932631 17.057684-6.682947 34.816-8.138105 52.224-1.589895 28.456421 10.698105 56.589474 22.177684 84.992 33.387789l-44.193684 41.903158c-42.927158-28.483368-87.174737-28.618105-130.128842 1.185684z m-20.48 153.546106l-43.762526 44.759579c-11.722105-30.288842-23.902316-60.227368-34.816-90.624-6.144-17.165474-2.721684-34.384842 4.015158-51.119158 10.24-25.384421 20.048842-50.957474 29.615157-75.317895l41.06779 44.759579c-25.141895 40.124632-24.549053 83.994947 3.880421 127.541895z m104.798316-59.688421l12.557473-57.936843c38.480842 25.6 57.748211 86.797474 13.608421 117.840843V449.212632l-59.553684 53.059368c-1.293474-0.916211-2.533053-1.805474-3.853473-2.694737 5.200842-26.354526 4.931368-51.604211-14.928843-73.458526v35.166316c-18.297263-8.892632-31.609263-33.468632-28.698947-57.586527 3.853474-32.390737 23.929263-55.134316 47.427369-75.856842-13.850947 38.804211 5.901474 65.428211 33.414736 91.162948z m45.082947 81.81221l42.576842 45.002105c-25.007158 9.916632-52.412632 20.668632-79.710316 31.717053-21.908211 8.838737-42.684632 4.796632-63.568842-4.042105-23.848421-10.132211-48.020211-19.509895-69.470315-28.133053l44.032-43.92421c39.828211 26.219789 82.997895 26.947368 126.140631-0.61979z" fill="#FFFFFF" p-id="14727"></path></svg>