<?xml version="1.0" standalone="no"?><!DOCTYPE svg PUBLIC "-//W3C//DTD SVG 1.1//EN" "http://www.w3.org/Graphics/SVG/1.1/DTD/svg11.dtd"><svg t="1717944724256" class="icon" viewBox="0 0 1024 1024" version="1.1" xmlns="http://www.w3.org/2000/svg" p-id="40682" xmlns:xlink="http://www.w3.org/1999/xlink" width="200" height="200"><path d="M270.4 109.9h527.4s-74 397.9-212.8 397.9c111 46.3 166.6 175.8 175.8 203.6s37 212.8 37 212.8H270.4s-9.3-83.3 0-148S395.8 561 446.2 507.8C251.9 341.2 270.4 109.9 270.4 109.9z" fill="#FFFFFF" opacity=".6" p-id="40683"></path><path d="M839.2 887.3h-28.7c-5.1-104.7-28.7-183.5-63-242.7l-0.5-1.2c-36-61.9-83.7-102.2-133.9-126.8 50.2-25 97.8-65 133.9-126.8l0.5-1.2C783 327 807.4 243.8 811 132.3h28.2c19.2 0 34.4-15.1 34.4-34.1s-15.2-34.1-34.4-34.1H208.8c-19 0-34.4 15.1-34.4 34.1s15.3 34.1 34.3 34.1H237c4.1 111.5 28 194.7 63.5 256.3l0.7 1.2c36 61.8 83.4 101.7 133.8 126.8-50.4 24.6-97.8 65-133.8 126.8l-0.7 1.1c-34 59.2-57.7 138-62.8 242.7h-29c-19 0-34.3 15.1-34.3 33.6 0 19.5 15.3 34.6 34.3 34.6H839c19.2 0 34.4-15.1 34.4-34.6 0.1-18.4-15-33.5-34.2-33.5m-503.1-222l0.5-1.4c41.4-71.1 86.5-109 146.5-127.5l2.3-1.4h0.5c1.2-0.5 2.4-1 3.5-1.9l0.4-0.4 1.5-1 0.2-0.5 1.5-1.4 0.3-0.5c1-1 1.4-2.2 2.5-3.4v-0.4c1-1.4 1.5-3.2 1.5-4.9l0.3-0.5v-1.5l0.2-1.2v-0.9l-0.2-1.2v-1l-0.3-1c0-1.7-0.5-3.4-1.5-4.8v-0.5c-1-1.4-1.5-2.4-2.5-3.4l-0.3-0.8-1.5-1.2h-0.2l-1.5-1.4-0.4-0.5c-1.1-0.8-2.2-1.5-3.5-2.2l-0.5-0.3-2.3-0.9c-59.9-18-105.1-56.5-146.5-128l-0.5-0.5c-32.2-56.3-54-132.9-57.9-236.1h491.6c-3.5 103.2-25.4 179.8-57.9 236.1l-0.5 0.5c-41.2 71.5-86.5 110-145.9 128l-2.9 0.9-0.5 0.3c-1.2 0.8-2.2 1.5-3.5 2.2l-0.5 0.5-1.5 1.4-1.7 1.2-0.2 0.8c-0.8 0.9-1.5 2-2 3.4l-0.5 0.5c-0.5 1.5-1 3.2-1.5 4.8v7.3c0.5 1.7 1 3.4 1.5 4.9l0.5 0.4c0.5 1.2 1.2 2.4 2 3.4l0.2 0.5 1.7 1.4v0.5l1.5 1 0.5 0.4c1 1 2.3 1.5 3.5 1.9h0.5l2.9 1.4c59.4 18.6 104.8 56.5 145.9 127.5l0.5 1.4c17.2 29.3 31.1 64.8 41.4 106.1 2.2 11.8 9.5 37.7 11.5 71.3-32.7-29-124.3-50.2-233.9-51.8V468.5c1.1-0.3 2.2-0.8 3.3-1.2l0.3-0.5 5.8-2.2 0.5-0.3h0.5c39.7-12.4 71.8-32.1 98-57.9 28.3-27.7 49.7-62.3 64.3-100.3 4-10.7-0.9-22.4-11.6-26.3-10.7-4.4-22.6 1-26.8 11.7-12.8 32.4-30.6 62.1-54.8 85.7-21.4 20.9-47.9 37.5-81 47.7l-1 0.5-2.4 0.5-2 1-2-1-1.4-0.5-1.9-0.5c-32.6-10.3-59.6-26.7-80.8-47.7-24.3-23.6-42.1-53.3-55-85.7-3.9-10.7-16.1-16.1-26.3-11.7-10.7 3.9-15.6 15.6-11.8 26.3 14.7 38 35.6 72.6 64.3 100.3 25.8 25.8 58.4 45.5 97.8 57.9h0.3l0.7 0.3 5.3 2.2 1.5 0.5c0.8 0.4 1.6 0.8 2.5 1.1v322.4c-102.6 0-191.4 17.2-233.8 42.2 1.5-16.5 4.9-35.2 11.3-61.5 10.2-41.9 24.3-76.9 41.4-106.2" fill="#808080" p-id="40684"></path></svg>